<?xml version="1.0" standalone="no"?>
<svg xmlns:xlink="http://www.w3.org/1999/xlink" id="wave" style="transform:rotate(0deg); transition: 0.3s" viewBox="0 0 1440 190" version="1.1" xmlns="http://www.w3.org/2000/svg"><defs><linearGradient id="sw-gradient-0" x1="0" x2="0" y1="1" y2="0"><stop stop-color="rgba(11, 78, 105, 1)" offset="0%"/><stop stop-color="rgba(53, 159, 172, 1)" offset="100%"/></linearGradient></defs><path style="transform:translate(0, 0px); opacity:1" fill="url(#sw-gradient-0)" d="M0,19L30,34.8C60,51,120,82,180,79.2C240,76,300,38,360,47.5C420,57,480,114,540,139.3C600,165,660,158,720,148.8C780,139,840,127,900,117.2C960,108,1020,101,1080,88.7C1140,76,1200,57,1260,66.5C1320,76,1380,114,1440,110.8C1500,108,1560,63,1620,66.5C1680,70,1740,120,1800,145.7C1860,171,1920,171,1980,167.8C2040,165,2100,158,2160,133C2220,108,2280,63,2340,60.2C2400,57,2460,95,2520,107.7C2580,120,2640,108,2700,98.2C2760,89,2820,82,2880,79.2C2940,76,3000,76,3060,88.7C3120,101,3180,127,3240,139.3C3300,152,3360,152,3420,142.5C3480,133,3540,114,3600,95C3660,76,3720,57,3780,50.7C3840,44,3900,51,3960,57C4020,63,4080,70,4140,66.5C4200,63,4260,51,4290,44.3L4320,38L4320,190L4290,190C4260,190,4200,190,4140,190C4080,190,4020,190,3960,190C3900,190,3840,190,3780,190C3720,190,3660,190,3600,190C3540,190,3480,190,3420,190C3360,190,3300,190,3240,190C3180,190,3120,190,3060,190C3000,190,2940,190,2880,190C2820,190,2760,190,2700,190C2640,190,2580,190,2520,190C2460,190,2400,190,2340,190C2280,190,2220,190,2160,190C2100,190,2040,190,1980,190C1920,190,1860,190,1800,190C1740,190,1680,190,1620,190C1560,190,1500,190,1440,190C1380,190,1320,190,1260,190C1200,190,1140,190,1080,190C1020,190,960,190,900,190C840,190,780,190,720,190C660,190,600,190,540,190C480,190,420,190,360,190C300,190,240,190,180,190C120,190,60,190,30,190L0,190Z"/><defs><linearGradient id="sw-gradient-1" x1="0" x2="0" y1="1" y2="0"><stop stop-color="rgba(11, 78, 105, 1)" offset="0%"/><stop stop-color="rgba(53, 159, 172, 1)" offset="100%"/></linearGradient></defs><path style="transform:translate(0, 50px); opacity:0.9" fill="url(#sw-gradient-1)" d="M0,0L30,19C60,38,120,76,180,101.3C240,127,300,139,360,126.7C420,114,480,76,540,63.3C600,51,660,63,720,79.2C780,95,840,114,900,101.3C960,89,1020,44,1080,28.5C1140,13,1200,25,1260,44.3C1320,63,1380,89,1440,91.8C1500,95,1560,76,1620,72.8C1680,70,1740,82,1800,98.2C1860,114,1920,133,1980,123.5C2040,114,2100,76,2160,79.2C2220,82,2280,127,2340,136.2C2400,146,2460,120,2520,107.7C2580,95,2640,95,2700,107.7C2760,120,2820,146,2880,152C2940,158,3000,146,3060,136.2C3120,127,3180,120,3240,101.3C3300,82,3360,51,3420,57C3480,63,3540,108,3600,117.2C3660,127,3720,101,3780,76C3840,51,3900,25,3960,25.3C4020,25,4080,51,4140,72.8C4200,95,4260,114,4290,123.5L4320,133L4320,190L4290,190C4260,190,4200,190,4140,190C4080,190,4020,190,3960,190C3900,190,3840,190,3780,190C3720,190,3660,190,3600,190C3540,190,3480,190,3420,190C3360,190,3300,190,3240,190C3180,190,3120,190,3060,190C3000,190,2940,190,2880,190C2820,190,2760,190,2700,190C2640,190,2580,190,2520,190C2460,190,2400,190,2340,190C2280,190,2220,190,2160,190C2100,190,2040,190,1980,190C1920,190,1860,190,1800,190C1740,190,1680,190,1620,190C1560,190,1500,190,1440,190C1380,190,1320,190,1260,190C1200,190,1140,190,1080,190C1020,190,960,190,900,190C840,190,780,190,720,190C660,190,600,190,540,190C480,190,420,190,360,190C300,190,240,190,180,190C120,190,60,190,30,190L0,190Z"/></svg>