<?xml version="1.0" standalone="no"?>
<svg xmlns:xlink="http://www.w3.org/1999/xlink" id="wave" style="transform:rotate(0deg); transition: 0.3s" viewBox="0 0 1440 490" version="1.1" xmlns="http://www.w3.org/2000/svg"><defs><linearGradient id="sw-gradient-0" x1="0" x2="0" y1="1" y2="0"><stop stop-color="rgba(10, 77, 104, 1)" offset="0%"/><stop stop-color="rgba(10, 77, 104, 0.8)" offset="100%"/></linearGradient></defs><path style="transform:translate(0, 0px); opacity:1" fill="url(#sw-gradient-0)" d="M0,0L40,57.2C80,114,160,229,240,269.5C320,310,400,278,480,245C560,212,640,180,720,171.5C800,163,880,180,960,212.3C1040,245,1120,294,1200,261.3C1280,229,1360,114,1440,73.5C1520,33,1600,65,1680,98C1760,131,1840,163,1920,147C2000,131,2080,65,2160,73.5C2240,82,2320,163,2400,196C2480,229,2560,212,2640,204.2C2720,196,2800,196,2880,204.2C2960,212,3040,229,3120,253.2C3200,278,3280,310,3360,318.5C3440,327,3520,310,3600,318.5C3680,327,3760,359,3840,367.5C3920,376,4000,359,4080,294C4160,229,4240,114,4320,106.2C4400,98,4480,196,4560,220.5C4640,245,4720,196,4800,171.5C4880,147,4960,147,5040,171.5C5120,196,5200,245,5280,245C5360,245,5440,196,5520,163.3C5600,131,5680,114,5720,106.2L5760,98L5760,490L5720,490C5680,490,5600,490,5520,490C5440,490,5360,490,5280,490C5200,490,5120,490,5040,490C4960,490,4880,490,4800,490C4720,490,4640,490,4560,490C4480,490,4400,490,4320,490C4240,490,4160,490,4080,490C4000,490,3920,490,3840,490C3760,490,3680,490,3600,490C3520,490,3440,490,3360,490C3280,490,3200,490,3120,490C3040,490,2960,490,2880,490C2800,490,2720,490,2640,490C2560,490,2480,490,2400,490C2320,490,2240,490,2160,490C2080,490,2000,490,1920,490C1840,490,1760,490,1680,490C1600,490,1520,490,1440,490C1360,490,1280,490,1200,490C1120,490,1040,490,960,490C880,490,800,490,720,490C640,490,560,490,480,490C400,490,320,490,240,490C160,490,80,490,40,490L0,490Z"/><defs><linearGradient id="sw-gradient-1" x1="0" x2="0" y1="1" y2="0"><stop stop-color="rgba(10, 77, 104, 1)" offset="0%"/><stop stop-color="rgba(10, 77, 104, 0.8)" offset="100%"/></linearGradient></defs><path style="transform:translate(0, 50px); opacity:0.9" fill="url(#sw-gradient-1)" d="M0,441L40,408.3C80,376,160,310,240,277.7C320,245,400,245,480,245C560,245,640,245,720,228.7C800,212,880,180,960,138.8C1040,98,1120,49,1200,65.3C1280,82,1360,163,1440,171.5C1520,180,1600,114,1680,106.2C1760,98,1840,147,1920,163.3C2000,180,2080,163,2160,147C2240,131,2320,114,2400,122.5C2480,131,2560,163,2640,163.3C2720,163,2800,131,2880,163.3C2960,196,3040,294,3120,277.7C3200,261,3280,131,3360,98C3440,65,3520,131,3600,196C3680,261,3760,327,3840,302.2C3920,278,4000,163,4080,114.3C4160,65,4240,82,4320,73.5C4400,65,4480,33,4560,24.5C4640,16,4720,33,4800,40.8C4880,49,4960,49,5040,89.8C5120,131,5200,212,5280,236.8C5360,261,5440,229,5520,179.7C5600,131,5680,65,5720,32.7L5760,0L5760,490L5720,490C5680,490,5600,490,5520,490C5440,490,5360,490,5280,490C5200,490,5120,490,5040,490C4960,490,4880,490,4800,490C4720,490,4640,490,4560,490C4480,490,4400,490,4320,490C4240,490,4160,490,4080,490C4000,490,3920,490,3840,490C3760,490,3680,490,3600,490C3520,490,3440,490,3360,490C3280,490,3200,490,3120,490C3040,490,2960,490,2880,490C2800,490,2720,490,2640,490C2560,490,2480,490,2400,490C2320,490,2240,490,2160,490C2080,490,2000,490,1920,490C1840,490,1760,490,1680,490C1600,490,1520,490,1440,490C1360,490,1280,490,1200,490C1120,490,1040,490,960,490C880,490,800,490,720,490C640,490,560,490,480,490C400,490,320,490,240,490C160,490,80,490,40,490L0,490Z"/></svg>