<?xml version="1.0" standalone="no"?>
<svg xmlns:xlink="http://www.w3.org/1999/xlink" id="wave" style="transform:rotate(0deg); transition: 0.3s" viewBox="0 0 1440 230" version="1.1" xmlns="http://www.w3.org/2000/svg"><defs><linearGradient id="sw-gradient-0" x1="0" x2="0" y1="1" y2="0"><stop stop-color="rgba(10, 77, 104, 1)" offset="0%"/><stop stop-color="rgba(10, 77, 104, 0.58)" offset="100%"/></linearGradient></defs><path style="transform:translate(0, 0px); opacity:1" fill="url(#sw-gradient-0)" d="M0,0L34.3,26.8C68.6,54,137,107,206,126.5C274.3,146,343,130,411,115C480,100,549,84,617,80.5C685.7,77,754,84,823,99.7C891.4,115,960,138,1029,122.7C1097.1,107,1166,54,1234,34.5C1302.9,15,1371,31,1440,46C1508.6,61,1577,77,1646,69C1714.3,61,1783,31,1851,34.5C1920,38,1989,77,2057,92C2125.7,107,2194,100,2263,95.8C2331.4,92,2400,92,2469,95.8C2537.1,100,2606,107,2674,118.8C2742.9,130,2811,146,2880,149.5C2948.6,153,3017,146,3086,149.5C3154.3,153,3223,169,3291,172.5C3360,176,3429,169,3497,138C3565.7,107,3634,54,3703,49.8C3771.4,46,3840,92,3909,103.5C3977.1,115,4046,92,4114,80.5C4182.9,69,4251,69,4320,80.5C4388.6,92,4457,115,4526,115C4594.3,115,4663,92,4731,76.7C4800,61,4869,54,4903,49.8L4937.1,46L4937.1,230L4902.9,230C4868.6,230,4800,230,4731,230C4662.9,230,4594,230,4526,230C4457.1,230,4389,230,4320,230C4251.4,230,4183,230,4114,230C4045.7,230,3977,230,3909,230C3840,230,3771,230,3703,230C3634.3,230,3566,230,3497,230C3428.6,230,3360,230,3291,230C3222.9,230,3154,230,3086,230C3017.1,230,2949,230,2880,230C2811.4,230,2743,230,2674,230C2605.7,230,2537,230,2469,230C2400,230,2331,230,2263,230C2194.3,230,2126,230,2057,230C1988.6,230,1920,230,1851,230C1782.9,230,1714,230,1646,230C1577.1,230,1509,230,1440,230C1371.4,230,1303,230,1234,230C1165.7,230,1097,230,1029,230C960,230,891,230,823,230C754.3,230,686,230,617,230C548.6,230,480,230,411,230C342.9,230,274,230,206,230C137.1,230,69,230,34,230L0,230Z"/><defs><linearGradient id="sw-gradient-1" x1="0" x2="0" y1="1" y2="0"><stop stop-color="rgba(10, 77, 104, 1)" offset="0%"/><stop stop-color="rgba(10, 77, 104, 0.8)" offset="100%"/></linearGradient></defs><path style="transform:translate(0, 50px); opacity:0.9" fill="url(#sw-gradient-1)" d="M0,207L34.3,191.7C68.6,176,137,146,206,130.3C274.3,115,343,115,411,115C480,115,549,115,617,107.3C685.7,100,754,84,823,65.2C891.4,46,960,23,1029,30.7C1097.1,38,1166,77,1234,80.5C1302.9,84,1371,54,1440,49.8C1508.6,46,1577,69,1646,76.7C1714.3,84,1783,77,1851,69C1920,61,1989,54,2057,57.5C2125.7,61,2194,77,2263,76.7C2331.4,77,2400,61,2469,76.7C2537.1,92,2606,138,2674,130.3C2742.9,123,2811,61,2880,46C2948.6,31,3017,61,3086,92C3154.3,123,3223,153,3291,141.8C3360,130,3429,77,3497,53.7C3565.7,31,3634,38,3703,34.5C3771.4,31,3840,15,3909,11.5C3977.1,8,4046,15,4114,19.2C4182.9,23,4251,23,4320,42.2C4388.6,61,4457,100,4526,111.2C4594.3,123,4663,107,4731,84.3C4800,61,4869,31,4903,15.3L4937.1,0L4937.1,230L4902.9,230C4868.6,230,4800,230,4731,230C4662.9,230,4594,230,4526,230C4457.1,230,4389,230,4320,230C4251.4,230,4183,230,4114,230C4045.7,230,3977,230,3909,230C3840,230,3771,230,3703,230C3634.3,230,3566,230,3497,230C3428.6,230,3360,230,3291,230C3222.9,230,3154,230,3086,230C3017.1,230,2949,230,2880,230C2811.4,230,2743,230,2674,230C2605.7,230,2537,230,2469,230C2400,230,2331,230,2263,230C2194.3,230,2126,230,2057,230C1988.6,230,1920,230,1851,230C1782.9,230,1714,230,1646,230C1577.1,230,1509,230,1440,230C1371.4,230,1303,230,1234,230C1165.7,230,1097,230,1029,230C960,230,891,230,823,230C754.3,230,686,230,617,230C548.6,230,480,230,411,230C342.9,230,274,230,206,230C137.1,230,69,230,34,230L0,230Z"/></svg>