<?xml version="1.0" standalone="no"?>
<svg xmlns:xlink="http://www.w3.org/1999/xlink" id="wave" style="transform:rotate(0deg); transition: 0.3s" viewBox="0 0 1440 310" version="1.1" xmlns="http://www.w3.org/2000/svg"><defs><linearGradient id="sw-gradient-0" x1="0" x2="0" y1="1" y2="0"><stop stop-color="rgba(10, 77, 104, 1)" offset="0%"/><stop stop-color="rgba(8, 131, 149, 1)" offset="100%"/></linearGradient></defs><path style="transform:translate(0, 0px); opacity:1" fill="url(#sw-gradient-0)" d="M0,186L34.3,155C68.6,124,137,62,206,56.8C274.3,52,343,103,411,118.8C480,134,549,114,617,87.8C685.7,62,754,31,823,31C891.4,31,960,62,1029,77.5C1097.1,93,1166,93,1234,103.3C1302.9,114,1371,134,1440,149.8C1508.6,165,1577,176,1646,191.2C1714.3,207,1783,227,1851,201.5C1920,176,1989,103,2057,103.3C2125.7,103,2194,176,2263,180.8C2331.4,186,2400,124,2469,98.2C2537.1,72,2606,83,2674,103.3C2742.9,124,2811,155,2880,180.8C2948.6,207,3017,227,3086,201.5C3154.3,176,3223,103,3291,77.5C3360,52,3429,72,3497,87.8C3565.7,103,3634,114,3703,124C3771.4,134,3840,145,3909,134.3C3977.1,124,4046,93,4114,72.3C4182.9,52,4251,41,4320,56.8C4388.6,72,4457,114,4526,124C4594.3,134,4663,114,4731,103.3C4800,93,4869,93,4903,93L4937.1,93L4937.1,310L4902.9,310C4868.6,310,4800,310,4731,310C4662.9,310,4594,310,4526,310C4457.1,310,4389,310,4320,310C4251.4,310,4183,310,4114,310C4045.7,310,3977,310,3909,310C3840,310,3771,310,3703,310C3634.3,310,3566,310,3497,310C3428.6,310,3360,310,3291,310C3222.9,310,3154,310,3086,310C3017.1,310,2949,310,2880,310C2811.4,310,2743,310,2674,310C2605.7,310,2537,310,2469,310C2400,310,2331,310,2263,310C2194.3,310,2126,310,2057,310C1988.6,310,1920,310,1851,310C1782.9,310,1714,310,1646,310C1577.1,310,1509,310,1440,310C1371.4,310,1303,310,1234,310C1165.7,310,1097,310,1029,310C960,310,891,310,823,310C754.3,310,686,310,617,310C548.6,310,480,310,411,310C342.9,310,274,310,206,310C137.1,310,69,310,34,310L0,310Z"/><defs><linearGradient id="sw-gradient-1" x1="0" x2="0" y1="1" y2="0"><stop stop-color="rgba(10, 77, 104, 0.69)" offset="0%"/><stop stop-color="rgba(8, 131, 149, 1)" offset="100%"/></linearGradient></defs><path style="transform:translate(0, 50px); opacity:0.9" fill="url(#sw-gradient-1)" d="M0,248L34.3,253.2C68.6,258,137,269,206,273.8C274.3,279,343,279,411,232.5C480,186,549,93,617,87.8C685.7,83,754,165,823,175.7C891.4,186,960,124,1029,118.8C1097.1,114,1166,165,1234,170.5C1302.9,176,1371,134,1440,134.3C1508.6,134,1577,176,1646,196.3C1714.3,217,1783,217,1851,217C1920,217,1989,217,2057,211.8C2125.7,207,2194,196,2263,186C2331.4,176,2400,165,2469,170.5C2537.1,176,2606,196,2674,180.8C2742.9,165,2811,114,2880,87.8C2948.6,62,3017,62,3086,51.7C3154.3,41,3223,21,3291,51.7C3360,83,3429,165,3497,196.3C3565.7,227,3634,207,3703,196.3C3771.4,186,3840,186,3909,201.5C3977.1,217,4046,248,4114,237.7C4182.9,227,4251,176,4320,175.7C4388.6,176,4457,227,4526,227.3C4594.3,227,4663,176,4731,149.8C4800,124,4869,124,4903,124L4937.1,124L4937.1,310L4902.9,310C4868.6,310,4800,310,4731,310C4662.9,310,4594,310,4526,310C4457.1,310,4389,310,4320,310C4251.4,310,4183,310,4114,310C4045.7,310,3977,310,3909,310C3840,310,3771,310,3703,310C3634.3,310,3566,310,3497,310C3428.6,310,3360,310,3291,310C3222.9,310,3154,310,3086,310C3017.1,310,2949,310,2880,310C2811.4,310,2743,310,2674,310C2605.7,310,2537,310,2469,310C2400,310,2331,310,2263,310C2194.3,310,2126,310,2057,310C1988.6,310,1920,310,1851,310C1782.9,310,1714,310,1646,310C1577.1,310,1509,310,1440,310C1371.4,310,1303,310,1234,310C1165.7,310,1097,310,1029,310C960,310,891,310,823,310C754.3,310,686,310,617,310C548.6,310,480,310,411,310C342.9,310,274,310,206,310C137.1,310,69,310,34,310L0,310Z"/><defs><linearGradient id="sw-gradient-2" x1="0" x2="0" y1="1" y2="0"><stop stop-color="rgba(10, 77, 104, 1)" offset="0%"/><stop stop-color="rgba(8, 131, 149, 1)" offset="100%"/></linearGradient></defs><path style="transform:translate(0, 100px); opacity:0.8" fill="url(#sw-gradient-2)" d="M0,217L34.3,211.8C68.6,207,137,196,206,165.3C274.3,134,343,83,411,56.8C480,31,549,31,617,25.8C685.7,21,754,10,823,20.7C891.4,31,960,62,1029,72.3C1097.1,83,1166,72,1234,67.2C1302.9,62,1371,62,1440,51.7C1508.6,41,1577,21,1646,56.8C1714.3,93,1783,186,1851,201.5C1920,217,1989,155,2057,118.8C2125.7,83,2194,72,2263,77.5C2331.4,83,2400,103,2469,139.5C2537.1,176,2606,227,2674,248C2742.9,269,2811,258,2880,237.7C2948.6,217,3017,186,3086,191.2C3154.3,196,3223,238,3291,248C3360,258,3429,238,3497,211.8C3565.7,186,3634,155,3703,124C3771.4,93,3840,62,3909,72.3C3977.1,83,4046,134,4114,160.2C4182.9,186,4251,186,4320,160.2C4388.6,134,4457,83,4526,62C4594.3,41,4663,52,4731,56.8C4800,62,4869,62,4903,62L4937.1,62L4937.1,310L4902.9,310C4868.6,310,4800,310,4731,310C4662.9,310,4594,310,4526,310C4457.1,310,4389,310,4320,310C4251.4,310,4183,310,4114,310C4045.7,310,3977,310,3909,310C3840,310,3771,310,3703,310C3634.3,310,3566,310,3497,310C3428.6,310,3360,310,3291,310C3222.9,310,3154,310,3086,310C3017.1,310,2949,310,2880,310C2811.4,310,2743,310,2674,310C2605.7,310,2537,310,2469,310C2400,310,2331,310,2263,310C2194.3,310,2126,310,2057,310C1988.6,310,1920,310,1851,310C1782.9,310,1714,310,1646,310C1577.1,310,1509,310,1440,310C1371.4,310,1303,310,1234,310C1165.7,310,1097,310,1029,310C960,310,891,310,823,310C754.3,310,686,310,617,310C548.6,310,480,310,411,310C342.9,310,274,310,206,310C137.1,310,69,310,34,310L0,310Z"/></svg>