<svg xmlns="http://www.w3.org/2000/svg" version="1.1" xmlns:xlink="http://www.w3.org/1999/xlink" xmlns:svgjs="http://svgjs.dev/svgjs" width="1440" height="560" preserveAspectRatio="none" viewBox="0 0 1440 560"><g mask="url(&quot;#SvgjsMask1041&quot;)" fill="none"><rect width="1440" height="560" x="0" y="0" fill="url(&quot;#SvgjsLinearGradient1042&quot;)"></rect><rect width="60" height="60" clip-path="url(&quot;#SvgjsClipPath1043&quot;)" x="216.83" y="84.69" fill="url(&quot;#SvgjsPattern1044&quot;)" transform="rotate(205.66, 246.83, 114.69)"></rect><rect width="192" height="192" clip-path="url(&quot;#SvgjsClipPath1045&quot;)" x="612.12" y="389.15" fill="url(&quot;#SvgjsPattern1046&quot;)" transform="rotate(229.76, 708.12, 485.15)"></rect><path d="M882.55 194.99a5.6 5.6 0 1 0 8.48-7.31 5.6 5.6 0 1 0-8.48 7.31zM894.67 184.55a5.6 5.6 0 1 0 8.48-7.31 5.6 5.6 0 1 0-8.48 7.31zM906.79 174.1a5.6 5.6 0 1 0 8.48-7.31 5.6 5.6 0 1 0-8.48 7.31zM918.91 163.66a5.6 5.6 0 1 0 8.48-7.32 5.6 5.6 0 1 0-8.48 7.32zM868.76 228.01a5.6 5.6 0 1 0 8.48-7.32 5.6 5.6 0 1 0-8.48 7.32zM880.88 217.56a5.6 5.6 0 1 0 8.48-7.31 5.6 5.6 0 1 0-8.48 7.31zM893 207.11a5.6 5.6 0 1 0 8.48-7.31 5.6 5.6 0 1 0-8.48 7.31zM905.12 196.67a5.6 5.6 0 1 0 8.48-7.32 5.6 5.6 0 1 0-8.48 7.32zM854.97 261.02a5.6 5.6 0 1 0 8.48-7.31 5.6 5.6 0 1 0-8.48 7.31zM867.08 250.57a5.6 5.6 0 1 0 8.49-7.31 5.6 5.6 0 1 0-8.49 7.31zM879.2 240.13a5.6 5.6 0 1 0 8.49-7.32 5.6 5.6 0 1 0-8.49 7.32zM891.32 229.68a5.6 5.6 0 1 0 8.49-7.31 5.6 5.6 0 1 0-8.49 7.31z" stroke="#e73635" stroke-width="2.3" stroke-dasharray="3, 3"></path><path d="M1359.83 158.62L1348.17 163.91 1340.45 153.7 1328.79 159 1321.06 148.78 1309.4 154.08 1301.67 143.87M1361.8 150.86L1350.14 156.16 1342.41 145.94 1330.75 151.24 1323.03 141.03 1311.37 146.33 1303.64 136.11M1363.76 143.11L1352.11 148.4 1344.38 138.19 1332.72 143.49 1324.99 133.27 1313.33 138.57 1305.61 128.36" stroke="#e73635" stroke-width="2.77" stroke-dasharray="2, 2"></path><circle r="46.666666666666664" cx="1304.6" cy="232.35" stroke="#e73635" stroke-width="2.81" stroke-dasharray="2, 2"></circle><rect width="264" height="264" clip-path="url(&quot;#SvgjsClipPath1047&quot;)" x="1011.36" y="21.27" fill="url(&quot;#SvgjsPattern1048&quot;)" transform="rotate(97.16, 1143.36, 153.27)"></rect><path d="M394.52 23.87L398.32 11.65 411.08 12.67 414.89 0.44 427.65 1.47 431.45-10.76 444.22-9.74M399 30.5L402.8 18.27 415.57 19.3 419.37 7.07 432.13 8.09 435.93-4.14 448.7-3.11" stroke="#d3b714" stroke-width="1" stroke-dasharray="3, 2"></path><path d="M1209.21 376.95a5.6 5.6 0 1 0 11.13 1.19 5.6 5.6 0 1 0-11.13-1.19zM1225.12 378.65a5.6 5.6 0 1 0 11.13 1.2 5.6 5.6 0 1 0-11.13-1.2zM1241.03 380.36a5.6 5.6 0 1 0 11.13 1.19 5.6 5.6 0 1 0-11.13-1.19zM1256.93 382.06a5.6 5.6 0 1 0 11.14 1.2 5.6 5.6 0 1 0-11.14-1.2zM1175.68 389.44a5.6 5.6 0 1 0 11.14 1.2 5.6 5.6 0 1 0-11.14-1.2zM1191.59 391.15a5.6 5.6 0 1 0 11.14 1.19 5.6 5.6 0 1 0-11.14-1.19zM1207.5 392.86a5.6 5.6 0 1 0 11.14 1.19 5.6 5.6 0 1 0-11.14-1.19zM1223.41 394.56a5.6 5.6 0 1 0 11.14 1.2 5.6 5.6 0 1 0-11.14-1.2zM1142.16 401.94a5.6 5.6 0 1 0 11.14 1.2 5.6 5.6 0 1 0-11.14-1.2zM1158.07 403.65a5.6 5.6 0 1 0 11.14 1.19 5.6 5.6 0 1 0-11.14-1.19zM1173.98 405.35a5.6 5.6 0 1 0 11.14 1.2 5.6 5.6 0 1 0-11.14-1.2zM1189.89 407.06a5.6 5.6 0 1 0 11.13 1.19 5.6 5.6 0 1 0-11.13-1.19z" stroke="#d3b714" stroke-width="2.73" stroke-dasharray="3, 3"></path><rect width="172.44" height="172.44" clip-path="url(&quot;#SvgjsClipPath1049&quot;)" x="75.22" y="455.88" fill="url(&quot;#SvgjsPattern1050&quot;)" transform="rotate(139.27, 161.44, 542.1)"></rect><rect width="135.8" height="135.8" clip-path="url(&quot;#SvgjsClipPath1051&quot;)" x="102.38" y="325.41" fill="url(&quot;#SvgjsPattern1052&quot;)" transform="rotate(202.53, 170.28, 393.31)"></rect><rect width="102" height="102" clip-path="url(&quot;#SvgjsClipPath1053&quot;)" x="884.73" y="10" fill="url(&quot;#SvgjsPattern1054&quot;)" transform="rotate(129.73, 935.73, 61)"></rect><rect width="67.6" height="67.6" clip-path="url(&quot;#SvgjsClipPath1055&quot;)" x="1214.83" y="177.78" fill="url(&quot;#SvgjsPattern1056&quot;)" transform="rotate(294.3, 1248.63, 211.58)"></rect></g><defs><mask id="SvgjsMask1041"><rect width="1440" height="560" fill="#ffffff"></rect></mask><linearGradient x1="15.28%" y1="-39.29%" x2="84.72%" y2="139.29%" gradientUnits="userSpaceOnUse" id="SvgjsLinearGradient1042"><stop stop-color="#0e2a47" offset="0"></stop><stop stop-color="#00459e" offset="1"></stop></linearGradient><pattern x="0" y="0" width="6" height="6" patternUnits="userSpaceOnUse" id="SvgjsPattern1044"><path d="M0 6L3 0L6 6" stroke="#e73635" fill="none"></path></pattern><clipPath id="SvgjsClipPath1043"><circle r="15" cx="246.83" cy="114.69"></circle></clipPath><pattern x="0" y="0" width="192" height="6" patternUnits="userSpaceOnUse" id="SvgjsPattern1046"><rect width="192" height="3" x="0" y="0" fill="#e73635"></rect><rect width="192" height="3" x="0" y="3" fill="rgba(0, 0, 0, 0)"></rect></pattern><clipPath id="SvgjsClipPath1045"><circle r="48" cx="708.12" cy="485.15"></circle></clipPath><pattern x="0" y="0" width="6" height="6" patternUnits="userSpaceOnUse" id="SvgjsPattern1048"><path d="M0 6L3 0L6 6" stroke="#d3b714" fill="none"></path></pattern><clipPath id="SvgjsClipPath1047"><circle r="66" cx="1143.36" cy="153.27"></circle></clipPath><pattern x="0" y="0" width="172.44" height="9.58" patternUnits="userSpaceOnUse" id="SvgjsPattern1050"><rect width="172.44" height="4.79" x="0" y="0" fill="#d3b714"></rect><rect width="172.44" height="4.79" x="0" y="4.79" fill="rgba(0, 0, 0, 0)"></rect></pattern><clipPath id="SvgjsClipPath1049"><circle r="43.11" cx="161.44" cy="542.1"></circle></clipPath><pattern x="0" y="0" width="135.8" height="13.58" patternUnits="userSpaceOnUse" id="SvgjsPattern1052"><rect width="135.8" height="6.79" x="0" y="0" fill="#e73635"></rect><rect width="135.8" height="6.79" x="0" y="6.79" fill="rgba(0, 0, 0, 0)"></rect></pattern><clipPath id="SvgjsClipPath1051"><circle r="33.95" cx="170.28" cy="393.31"></circle></clipPath><pattern x="0" y="0" width="10.2" height="10.2" patternUnits="userSpaceOnUse" id="SvgjsPattern1054"><path d="M5.1 1L5.1 9.2M1 5.1L9.2 5.1" stroke="#e73635" fill="none" stroke-width="1.88"></path></pattern><clipPath id="SvgjsClipPath1053"><circle r="25.5" cx="935.73" cy="61"></circle></clipPath><pattern x="0" y="0" width="67.6" height="6.76" patternUnits="userSpaceOnUse" id="SvgjsPattern1056"><rect width="67.6" height="3.38" x="0" y="0" fill="#e73635"></rect><rect width="67.6" height="3.38" x="0" y="3.38" fill="rgba(0, 0, 0, 0)"></rect></pattern><clipPath id="SvgjsClipPath1055"><circle r="16.9" cx="1248.63" cy="211.58"></circle></clipPath></defs></svg>